<?xml version="1.0" standalone="no"?>
<!DOCTYPE svg PUBLIC "-//W3C//DTD SVG 20010904//EN"
 "http://www.w3.org/TR/2001/REC-SVG-20010904/DTD/svg10.dtd">
<svg version="1.0" xmlns="http://www.w3.org/2000/svg"
 width="285.000000pt" height="96.000000pt" viewBox="0 0 285.000000 96.000000"
 preserveAspectRatio="xMidYMid meet">
<g transform="translate(0.000000,96.000000) scale(0.100000,-0.100000)"
fill="#000000" stroke="none">
<path d="M400 885 c0 -21 -27 -30 -44 -16 -19 16 -48 3 -41 -19 6 -18 -19 -35
-36 -24 -18 11 -39 -16 -29 -36 10 -19 1 -31 -32 -43 -19 -7 -25 -37 -8 -37
16 0 12 -40 -5 -46 -21 -8 -19 -41 3 -47 11 -2 21 -14 25 -26 3 -11 1 -19 -4
-15 -5 3 -14 2 -19 -1 -15 -9 9 -48 25 -41 18 6 31 -12 33 -46 2 -24 -3 -29
-41 -38 -63 -16 -69 -19 -62 -29 3 -6 -3 -14 -12 -20 -32 -19 -5 -11 52 14 31
13 68 33 83 43 15 11 49 31 75 46 l48 26 23 -25 c21 -22 25 -23 42 -10 25 19
32 19 30 -1 0 -9 5 -19 12 -21 9 -4 10 1 3 20 -9 22 -7 26 16 31 26 7 54 -8
52 -28 0 -6 -34 -28 -74 -48 l-73 -37 -16 22 c-8 12 -15 17 -15 10 -1 -6 6
-18 14 -27 20 -20 54 -9 130 40 33 22 67 42 75 46 12 5 11 7 -3 7 -26 1 -17
35 10 39 29 4 38 31 16 48 -17 13 -17 15 3 32 11 9 23 27 26 38 4 17 2 20 -13
17 -23 -6 -36 21 -20 41 14 17 3 49 -15 42 -17 -6 -29 12 -29 44 0 22 -4 25
-35 25 -28 0 -36 4 -38 22 -4 27 -33 39 -44 18 -12 -21 -35 -19 -43 5 -7 23
-45 27 -45 5z m34 -23 c2 -4 -4 -9 -15 -9 -11 -1 -17 2 -14 8 7 11 22 12 29 1z
m73 -7 c0 -8 -4 -12 -9 -9 -5 3 -6 10 -3 15 9 13 12 11 12 -6z m-157 -5 c0 -5
-5 -10 -11 -10 -5 0 -7 5 -4 10 3 6 8 10 11 10 2 0 4 -4 4 -10z m166 -35 c67
-33 104 -90 104 -162 0 -71 -26 -124 -56 -117 -12 3 -40 -4 -65 -17 -41 -21
-44 -21 -54 -4 -25 44 -45 55 -96 55 -48 0 -51 1 -45 23 4 12 9 35 13 50 3 16
12 31 20 34 18 7 93 -15 93 -27 0 -5 15 -1 33 9 38 22 84 34 90 24 3 -5 8 -29
12 -55 l7 -48 -31 0 c-39 0 -101 -25 -101 -41 0 -8 3 -9 13 0 8 6 16 8 19 5 3
-3 30 2 59 10 l54 16 0 44 c0 24 -3 42 -7 40 -4 -2 -8 6 -10 18 -2 19 -9 23
-38 23 -19 0 -41 4 -47 8 -9 5 -11 3 -7 -7 3 -8 -3 -19 -15 -25 -25 -14 -42
-14 -18 0 9 5 17 17 17 26 0 13 -2 14 -17 2 -16 -13 -17 -12 -5 3 8 10 11 26
7 39 -7 21 -8 20 -22 -11 -7 -19 -11 -40 -9 -47 4 -11 1 -11 -14 -3 -27 15
-99 10 -93 -6 2 -7 -2 -35 -11 -63 l-15 -51 41 -11 c22 -6 52 -8 65 -4 36 9
20 -9 -28 -30 l-41 -19 -29 32 c-69 77 -55 215 27 269 13 8 21 20 17 26 -3 5
-2 7 4 4 5 -3 23 -2 39 3 50 15 89 11 140 -15z m-226 -15 c0 -5 -8 -10 -17
-10 -15 0 -16 2 -3 10 19 12 20 12 20 0z m345 -59 c3 -5 0 -13 -6 -17 -7 -4
-9 -3 -5 4 3 5 0 13 -6 15 -9 4 -10 6 -1 6 6 1 14 -3 18 -8z m-395 -21 c0 -5
-2 -10 -4 -10 -3 0 -8 5 -11 10 -3 6 -1 10 4 10 6 0 11 -4 11 -10z m133 -167
c-7 -2 -19 -2 -25 0 -7 3 -2 5 12 5 14 0 19 -2 13 -5z m-74 -66 c0 -9 -2 -8
-6 1 -2 6 -10 9 -15 6 -7 -4 -8 -2 -4 5 9 13 26 5 25 -12z"/>
<path d="M412 809 c-22 -8 -34 -37 -30 -76 1 -12 6 -19 11 -16 5 3 6 16 3 28
-6 25 15 55 39 55 22 0 47 -31 42 -51 -3 -11 -2 -19 3 -19 15 0 18 39 4 58
-17 24 -43 32 -72 21z"/>
<path d="M523 725 c0 -7 8 -10 19 -7 10 2 18 6 18 7 0 1 -8 5 -18 7 -11 3 -19
0 -19 -7z"/>
<path d="M430 595 c0 -19 2 -35 4 -35 2 0 6 16 8 35 2 19 0 35 -4 35 -4 0 -8
-16 -8 -35z"/>
<path d="M335 520 c-3 -6 1 -7 9 -4 18 7 21 14 7 14 -6 0 -13 -4 -16 -10z"/>
<path d="M848 880 c21 -9 22 -15 22 -105 0 -74 -3 -95 -14 -95 -7 0 -19 -6
-25 -14 -10 -12 -6 -13 22 -6 18 4 48 6 65 4 18 -2 32 1 32 6 0 6 -6 9 -12 7
-9 -1 -14 14 -16 46 -3 42 -1 48 15 45 10 -2 22 -13 28 -26 15 -34 20 -27 20
33 0 60 -5 67 -20 33 -6 -13 -18 -24 -27 -26 -15 -3 -18 4 -18 42 0 44 1 46
29 46 42 0 61 -10 61 -31 0 -10 5 -19 11 -19 6 0 9 14 6 33 l-3 32 -100 2
c-68 2 -92 -1 -76 -7z"/>
<path d="M1053 877 c15 -10 17 -27 15 -107 -2 -69 -6 -94 -15 -93 -7 2 -13 -1
-13 -5 0 -4 27 -8 60 -8 33 -1 60 3 60 7 0 5 -6 8 -12 6 -10 -1 -14 25 -16
100 -2 90 -1 102 15 106 10 3 -11 5 -46 6 -55 1 -62 -1 -48 -12z"/>
<path d="M1200 870 c-37 -37 -19 -80 49 -117 48 -26 60 -48 39 -69 -24 -24
-69 -6 -90 37 l-17 34 -1 -49 c0 -38 3 -46 13 -38 8 7 18 7 27 2 42 -27 120 9
120 56 0 29 -26 56 -80 84 -44 23 -54 54 -20 65 25 8 70 -19 70 -40 0 -8 4
-15 10 -15 5 0 9 15 8 33 -1 33 -2 33 -54 35 -42 2 -58 -2 -74 -18z"/>
<path d="M1461 868 c-29 -76 -84 -183 -99 -194 -15 -11 -11 -13 26 -12 23 0
42 4 42 9 0 5 -7 9 -15 9 -16 0 -19 9 -9 34 10 26 80 21 95 -6 9 -17 9 -24 -5
-33 -13 -10 -6 -12 39 -11 59 1 63 3 41 20 -8 6 -33 55 -56 109 -24 53 -45 97
-47 97 -2 0 -7 -10 -12 -22z m8 -126 c-41 -7 -47 0 -31 38 l14 35 18 -35 c18
-34 18 -35 -1 -38z"/>
<path d="M1580 853 l1 -38 15 28 c9 17 23 27 37 27 21 0 22 -4 22 -95 0 -85
-2 -95 -20 -103 -14 -6 -2 -9 43 -9 34 1 62 5 62 9 0 4 -6 7 -12 5 -10 -1 -14
24 -16 96 l-3 97 27 0 c17 0 28 -6 31 -20 8 -31 20 -23 15 10 l-4 30 -99 0
-99 0 0 -37z"/>
<path d="M1799 888 c-11 -38 2 -58 26 -38 16 13 9 40 -11 40 -8 0 -14 -1 -15
-2z m26 -28 c-3 -5 -12 -10 -18 -10 -7 0 -6 4 3 10 19 12 23 12 15 0z"/>
<path d="M679 723 c-13 -16 -12 -17 4 -4 9 7 17 15 17 17 0 8 -8 3 -21 -13z"/>
<path d="M840 583 c0 -32 4 -43 16 -43 8 0 12 5 9 11 -4 6 1 17 11 24 18 13
18 14 2 15 -22 0 -24 20 -3 20 8 0 15 4 15 10 0 5 -11 9 -25 8 -22 -2 -25 -7
-25 -45z"/>
<path d="M900 585 c0 -42 2 -45 28 -45 23 1 24 2 10 11 -10 5 -18 14 -18 19 0
5 8 11 18 13 16 4 16 5 0 6 -22 1 -24 21 -3 21 8 0 15 5 15 10 0 6 -11 10 -25
10 -23 0 -25 -4 -25 -45z"/>
<path d="M967 623 c-4 -3 -7 -24 -7 -45 0 -37 2 -39 28 -36 23 3 28 8 30 37 2
20 -2 37 -10 42 -16 10 -32 11 -41 2z m33 -45 c0 -17 -3 -28 -7 -25 -9 10 -10
57 -1 57 4 0 8 -14 8 -32z"/>
<path d="M1040 585 c0 -43 1 -45 28 -44 16 1 20 3 10 6 -10 2 -18 11 -18 18 0
7 8 16 18 18 16 4 16 5 0 6 -22 1 -24 21 -3 21 8 0 15 5 15 10 0 6 -11 10 -25
10 -23 0 -25 -4 -25 -45z"/>
<path d="M1100 585 c0 -47 15 -62 23 -22 l4 22 8 -22 c11 -35 23 -27 22 15 -1
39 -10 52 -39 52 -15 0 -18 -9 -18 -45z m40 15 c0 -5 -4 -10 -10 -10 -5 0 -10
5 -10 10 0 6 5 10 10 10 6 0 10 -4 10 -10z"/>
<path d="M1187 613 c-14 -51 -16 -73 -8 -73 5 0 12 6 15 13 5 10 7 10 12 0 9
-20 36 -16 30 5 -3 9 -8 29 -12 45 -7 30 -30 36 -37 10z m20 -35 c-3 -7 -5 -2
-5 12 0 14 2 19 5 13 2 -7 2 -19 0 -25z"/>
<path d="M1250 585 c0 -41 2 -45 25 -45 14 0 25 4 25 10 0 5 -7 7 -15 4 -12
-5 -15 3 -15 35 0 23 -4 41 -10 41 -5 0 -10 -20 -10 -45z"/>
<path d="M1340 586 c0 -31 4 -46 13 -46 17 0 16 82 -1 88 -8 2 -12 -11 -12
-42z"/>
<path d="M1380 585 c0 -51 19 -62 21 -12 l1 32 7 -30 c3 -17 14 -31 24 -33 14
-3 17 4 17 42 0 55 -20 63 -21 9 -1 -39 -3 -38 -13 10 -11 46 -36 34 -36 -18z"/>
<path d="M1469 614 c-12 -15 -11 -19 9 -32 12 -8 22 -19 22 -24 0 -6 -7 -5
-15 2 -17 14 -31 8 -20 -9 9 -16 52 -13 58 4 4 8 -5 23 -21 35 -26 20 -26 21
-3 14 17 -4 22 -3 19 7 -7 21 -33 22 -49 3z"/>
<path d="M1530 618 c0 -4 5 -8 10 -8 6 0 10 -16 10 -35 0 -19 5 -35 10 -35 6
0 10 16 10 35 0 19 5 35 10 35 6 0 10 4 10 8 0 5 -13 9 -30 9 -16 0 -30 -4
-30 -9z"/>
<path d="M1600 585 c0 -35 4 -45 16 -45 11 0 14 5 10 16 -3 9 -6 29 -6 45 0
16 -4 29 -10 29 -5 0 -10 -20 -10 -45z"/>
<path d="M1633 618 c-2 -5 1 -8 6 -8 6 0 11 -16 11 -35 0 -24 5 -35 15 -35 10
0 15 10 15 29 0 16 3 36 6 44 4 11 -2 15 -21 13 -15 0 -29 -4 -32 -8z"/>
<path d="M1707 623 c-15 -15 -7 -72 12 -82 29 -16 53 8 49 49 -5 51 -26 49
-31 -2 l-4 -43 -1 43 c-2 39 -10 51 -25 35z"/>
<path d="M1780 619 c0 -5 4 -9 10 -9 6 0 8 -15 4 -35 -4 -27 -2 -35 10 -35 12
0 16 10 16 35 0 20 5 35 12 35 21 0 -1 13 -27 16 -14 1 -25 -2 -25 -7z"/>
<path d="M1849 618 c-5 -81 -6 -78 26 -77 17 1 22 3 13 6 -10 2 -18 11 -18 19
0 8 4 13 9 9 5 -3 12 -1 16 5 3 5 -1 10 -9 10 -9 0 -16 5 -16 10 0 6 7 10 16
10 8 0 12 5 9 10 -9 14 -45 12 -46 -2z"/>
<path d="M1951 616 c-7 -8 -11 -27 -9 -43 3 -24 8 -28 33 -28 25 0 30 4 33 28
4 30 -12 57 -33 57 -7 0 -18 -6 -24 -14z m26 -53 c-3 -10 -5 -2 -5 17 0 19 2
27 5 18 2 -10 2 -26 0 -35z"/>
<path d="M2020 583 c0 -32 4 -43 15 -43 10 0 15 7 13 18 -2 9 3 16 10 15 6 -2
12 2 12 7 0 6 -7 10 -15 10 -8 0 -15 5 -15 10 0 6 7 10 15 10 8 0 15 4 15 10
0 5 -11 9 -25 8 -22 -2 -25 -7 -25 -45z"/>
<path d="M675 531 c3 -5 -3 -12 -12 -14 -11 -3 -6 -5 11 -6 16 0 35 -9 42 -18
7 -10 14 -13 14 -7 0 6 -11 20 -25 32 -26 23 -40 29 -30 13z"/>
<path d="M234 492 c7 -11 -7 -16 -41 -15 -7 1 -13 -3 -13 -7 0 -5 -14 -8 -30
-8 -41 1 -64 -20 -32 -29 21 -5 22 -7 7 -23 -9 -10 -13 -20 -8 -23 5 -3 13 6
20 19 8 17 8 26 0 31 -5 3 14 12 44 20 60 15 77 27 58 38 -8 5 -10 4 -5 -3z"/>
<path d="M760 485 c-6 -8 -9 -19 -6 -24 4 -5 -1 -14 -10 -19 -12 -6 -6 -9 21
-10 20 -1 41 -4 46 -8 7 -4 7 2 -1 15 -6 12 -14 19 -18 17 -5 -3 -14 -1 -22 4
-11 7 -11 11 -1 24 8 9 11 16 8 16 -2 0 -10 -7 -17 -15z"/>
<path d="M843 484 c-4 -11 2 -23 18 -36 l24 -19 -24 6 c-17 5 -22 4 -19 -6 3
-8 14 -15 26 -17 33 -5 39 24 11 49 l-24 20 24 -7 c17 -4 22 -3 19 7 -7 21
-47 23 -55 3z"/>
<path d="M921 486 c-18 -22 -10 -70 13 -74 20 -4 44 14 32 25 -4 4 -11 1 -16
-7 -11 -17 -11 -16 -14 22 -1 23 2 27 17 22 14 -4 18 -2 15 7 -7 20 -33 22
-47 5z"/>
<path d="M990 455 c0 -25 5 -45 10 -45 6 0 10 20 10 45 0 25 -4 45 -10 45 -5
0 -10 -20 -10 -45z"/>
<path d="M1030 455 c0 -41 2 -45 25 -45 14 0 25 5 25 10 0 6 -7 10 -15 10 -21
0 -19 18 3 23 16 4 16 5 0 6 -10 0 -18 4 -18 7 0 4 8 13 18 20 15 12 14 13
-10 14 -26 0 -28 -2 -28 -45z"/>
<path d="M1090 455 c0 -26 5 -45 11 -45 7 0 10 12 7 29 -2 17 -1 28 4 25 4 -3
8 -16 8 -30 0 -17 5 -24 20 -24 17 0 20 7 20 45 0 54 -20 61 -21 8 -1 -39 -3
-38 -13 10 -11 46 -36 34 -36 -18z"/>
<path d="M1181 486 c-18 -22 -10 -70 13 -74 20 -4 44 14 32 25 -4 4 -11 1 -16
-7 -11 -17 -11 -16 -14 22 -1 23 2 27 17 22 14 -4 18 -2 15 7 -7 20 -33 22
-47 5z"/>
<path d="M1250 455 c0 -41 2 -45 25 -45 14 0 25 5 25 10 0 6 -7 10 -15 10 -21
0 -19 18 3 23 16 4 16 5 0 6 -22 1 -24 21 -3 21 8 0 15 5 15 10 0 6 -11 10
-25 10 -23 0 -25 -4 -25 -45z"/>
<path d="M1356 492 c-11 -18 -18 -82 -8 -82 6 0 13 6 15 13 4 9 8 9 15 -2 18
-26 28 -7 19 37 -7 38 -28 55 -41 34z m20 -49 c-10 -10 -19 5 -10 18 6 11 8
11 12 0 2 -7 1 -15 -2 -18z"/>
<path d="M1420 455 c0 -25 4 -45 9 -45 6 0 8 17 6 38 l-4 37 11 -37 c16 -54
38 -49 38 7 0 25 -4 45 -9 45 -6 0 -8 -17 -6 -37 l4 -38 -11 38 c-16 53 -38
48 -38 -8z"/>
<path d="M1500 454 c0 -44 1 -45 28 -42 23 3 28 8 30 37 4 35 -9 51 -40 51
-15 0 -18 -9 -18 -46z m40 1 c0 -14 -4 -25 -10 -25 -5 0 -10 11 -10 25 0 14 5
25 10 25 6 0 10 -11 10 -25z"/>
<path d="M1600 490 c0 -5 5 -10 10 -10 6 0 10 -16 10 -35 0 -24 5 -35 15 -35
10 0 15 10 15 29 0 16 3 36 6 45 5 13 -1 16 -25 16 -17 0 -31 -4 -31 -10z"/>
<path d="M1679 498 c0 -2 -2 -22 -5 -45 -5 -43 -5 -43 28 -43 32 1 32 1 13 16
-16 12 -17 16 -6 23 11 7 11 10 0 15 -11 5 -11 7 -1 12 19 9 14 24 -8 24 -11
0 -20 -1 -21 -2z"/>
<path d="M1744 487 c-3 -9 -4 -28 -2 -44 2 -22 8 -28 27 -28 13 0 26 6 29 14
3 9 -1 11 -17 6 -18 -5 -21 -2 -21 20 0 22 3 25 21 20 15 -5 20 -3 17 6 -6 20
-47 24 -54 6z"/>
<path d="M1810 456 c0 -35 4 -46 16 -46 11 0 14 6 9 20 -4 11 -2 20 4 20 6 0
11 -9 11 -21 0 -11 5 -19 12 -17 6 2 11 22 11 43 0 21 -5 41 -11 43 -7 2 -12
-6 -12 -19 0 -12 -3 -19 -7 -15 -5 4 -8 13 -8 19 0 5 -6 12 -12 15 -9 2 -13
-10 -13 -42z"/>
<path d="M1890 455 c0 -51 19 -62 21 -12 l1 32 7 -30 c3 -17 14 -31 24 -33 14
-3 17 4 17 42 0 55 -20 63 -21 9 -1 -39 -3 -38 -13 10 -11 46 -36 34 -36 -18z"/>
<path d="M1982 488 c-26 -26 -10 -78 24 -78 17 0 25 7 30 27 11 44 -26 79 -54
51z m25 -55 c-3 -10 -5 -2 -5 17 0 19 2 27 5 18 2 -10 2 -26 0 -35z"/>
<path d="M2050 455 c0 -41 2 -45 25 -45 14 0 25 5 25 10 0 6 -6 10 -13 10 -9
0 -12 11 -9 35 3 27 1 35 -12 35 -12 0 -16 -10 -16 -45z"/>
<path d="M2114 487 c-3 -9 -4 -28 -2 -44 2 -22 8 -28 28 -28 23 0 25 4 25 40
0 34 -3 40 -23 43 -13 2 -24 -3 -28 -11z m36 -32 c0 -14 -4 -25 -10 -25 -5 0
-10 11 -10 25 0 14 5 25 10 25 6 0 10 -11 10 -25z"/>
<path d="M2194 487 c-3 -9 -4 -28 -2 -44 2 -22 9 -29 31 -31 23 -3 27 0 27 22
0 17 -5 26 -16 26 -10 0 -14 -6 -10 -15 3 -8 1 -15 -4 -15 -6 0 -10 12 -10 26
0 21 3 24 21 19 15 -5 20 -3 17 6 -6 20 -47 24 -54 6z"/>
<path d="M2265 483 c3 -10 9 -30 12 -45 7 -34 19 -36 26 -5 3 12 9 32 12 45 5
14 3 22 -4 22 -6 0 -11 -8 -11 -17 -1 -17 -1 -17 -14 0 -7 9 -17 17 -21 17 -4
0 -4 -8 0 -17z"/>
<path d="M414 470 c-11 -4 -60 -31 -109 -59 -80 -46 -90 -49 -105 -36 -15 13
-17 13 -17 0 0 -29 43 -28 86 1 l42 27 22 -21 c22 -21 49 -24 64 -8 4 5 -4 6
-19 2 -21 -5 -30 -2 -38 13 -8 17 -4 23 37 45 25 15 47 25 48 24 1 -2 6 -11
12 -21 9 -17 11 -17 36 3 15 12 25 26 22 31 -10 15 -25 10 -25 -8 0 -15 -2
-15 -17 -1 -12 11 -25 13 -39 8z"/>
<path d="M635 444 c-28 -15 -69 -40 -93 -55 -49 -33 -55 -34 -72 -14 -7 8 -17
15 -23 15 -5 0 2 -9 16 -20 29 -23 40 -25 59 -7 13 12 25 19 93 57 17 10 50
21 73 25 23 4 42 11 42 16 0 17 -45 9 -95 -17z"/>
<path d="M380 422 c0 -17 37 -44 45 -32 3 6 1 9 -6 8 -7 -2 -13 3 -14 11 0 16
-25 29 -25 13z"/>
<path d="M655 415 c-16 -7 -23 -14 -15 -14 25 -1 60 11 60 20 0 12 -9 11 -45
-6z"/>
<path d="M842 333 c-12 -54 -8 -65 12 -37 14 18 15 18 21 2 12 -31 27 -20 20
13 -4 17 -8 39 -10 48 -1 9 -9 17 -18 19 -11 2 -18 -10 -25 -45z m25 -5 c-3
-8 -6 -5 -6 6 -1 11 2 17 5 13 3 -3 4 -12 1 -19z"/>
<path d="M912 333 c3 -44 5 -48 28 -48 23 0 25 4 28 48 2 28 -1 47 -7 47 -6 0
-11 -18 -11 -40 0 -22 -4 -40 -10 -40 -5 0 -10 18 -10 40 0 22 -5 40 -11 40
-6 0 -9 -19 -7 -47z"/>
<path d="M980 370 c0 -5 5 -10 10 -10 6 0 10 -18 10 -40 0 -22 5 -40 10 -40 6
0 10 18 10 40 0 22 5 40 10 40 6 0 10 5 10 10 0 6 -13 10 -30 10 -16 0 -30 -4
-30 -10z"/>
<path d="M1054 367 c-3 -8 -4 -30 -2 -49 2 -28 7 -33 28 -33 23 0 25 4 25 45
0 39 -3 45 -23 48 -13 2 -24 -3 -28 -11z m36 -37 c0 -16 -4 -30 -10 -30 -5 0
-10 14 -10 30 0 17 5 30 10 30 6 0 10 -13 10 -30z"/>
<path d="M1130 330 c0 -27 3 -50 8 -50 4 0 7 19 5 43 l-2 42 11 -42 c15 -61
38 -57 38 7 0 30 -4 50 -11 50 -7 0 -9 -13 -5 -37 5 -28 4 -34 -3 -23 -6 8
-11 25 -11 38 0 13 -6 22 -15 22 -11 0 -15 -12 -15 -50z"/>
<path d="M1214 367 c-3 -8 -4 -30 -2 -49 2 -28 7 -33 28 -33 23 0 25 4 25 45
0 39 -3 45 -23 48 -13 2 -24 -3 -28 -11z m36 -37 c0 -16 -4 -30 -10 -30 -5 0
-10 14 -10 30 0 17 5 30 10 30 6 0 10 -13 10 -30z"/>
<path d="M1280 330 c0 -57 20 -69 21 -12 1 38 3 37 13 -10 4 -16 11 -28 16
-28 6 0 10 12 10 28 0 21 -2 24 -10 12 -7 -11 -10 -5 -10 23 0 30 -4 37 -20
37 -17 0 -20 -7 -20 -50z"/>
<path d="M1337 360 c-3 -11 -1 -23 4 -26 5 -3 9 -16 9 -30 0 -13 5 -24 10 -24
6 0 10 23 10 50 0 36 -4 50 -14 50 -7 0 -16 -9 -19 -20z"/>
<path d="M1397 373 c-11 -10 -8 -81 3 -88 6 -3 19 -3 30 0 26 8 29 79 4 89
-20 8 -29 8 -37 -1z m33 -43 c0 -16 -4 -30 -10 -30 -5 0 -10 14 -10 30 0 17 5
30 10 30 6 0 10 -13 10 -30z"/>
<path d="M1460 341 c0 -78 62 -81 68 -2 2 31 0 41 -12 41 -10 0 -16 -13 -19
-42 l-4 -43 -1 43 c-1 30 -6 42 -17 42 -11 0 -15 -11 -15 -39z"/>
<path d="M1553 373 c-19 -7 -16 -24 9 -50 22 -23 12 -33 -10 -11 -9 9 -12 8
-12 -4 0 -22 16 -31 40 -23 26 8 25 23 -2 53 l-23 24 24 -7 c17 -5 22 -4 19 6
-5 15 -26 21 -45 12z"/>
<path d="M166 335 c2 -11 4 -29 4 -40 0 -16 2 -17 9 -5 6 8 8 17 5 21 -2 4 2
10 8 12 8 4 7 6 -4 6 -9 1 -18 7 -21 14 -2 6 -3 3 -1 -8z"/>
<path d="M588 353 c7 -3 16 -2 19 1 4 3 -2 6 -13 5 -11 0 -14 -3 -6 -6z"/>
<path d="M690 350 c-12 -7 -10 -9 7 -7 12 0 19 5 17 9 -6 10 -6 10 -24 -2z"/>
<path d="M278 343 c7 -3 16 -2 19 1 4 3 -2 6 -13 5 -11 0 -14 -3 -6 -6z"/>
<path d="M440 305 c0 -17 5 -25 18 -25 14 0 15 2 2 10 -13 9 -13 10 0 10 12 0
13 2 1 9 -11 7 -11 9 0 14 10 4 9 6 -3 6 -13 1 -18 -7 -18 -24z"/>
<path d="M575 320 c3 -5 10 -10 16 -10 5 0 9 5 9 10 0 6 -7 10 -16 10 -8 0
-12 -4 -9 -10z"/>
<path d="M204 308 c-8 -13 4 -23 30 -23 14 -1 22 5 22 16 0 18 -42 24 -52 7z
m26 -2 c0 -3 -4 -8 -10 -11 -5 -3 -10 -1 -10 4 0 6 5 11 10 11 6 0 10 -2 10
-4z"/>
<path d="M274 301 c2 -25 26 -24 25 1 0 21 -1 22 -8 3 -7 -16 -9 -17 -13 -5
-4 11 -5 12 -4 1z"/>
<path d="M313 300 c1 -20 8 -25 20 -14 7 8 -3 34 -13 34 -5 0 -8 -9 -7 -20z"/>
<path d="M354 308 c-9 -13 5 -27 26 -25 11 1 20 8 21 17 0 10 3 9 9 -5 8 -19
9 -19 9 2 1 18 -4 22 -29 21 -17 -1 -33 -5 -36 -10z m26 -2 c0 -3 -4 -8 -10
-11 -5 -3 -10 -1 -10 4 0 6 5 11 10 11 6 0 10 -2 10 -4z"/>
<path d="M480 297 c1 -20 2 -20 13 -5 12 15 14 15 25 0 11 -16 11 -16 6 1 -4
9 -2 17 4 17 6 0 12 -5 14 -11 2 -7 22 -13 44 -14 33 -2 40 1 41 16 1 11 -2
19 -8 19 -5 0 -9 -4 -9 -10 0 -11 -33 -14 -44 -3 -4 4 -25 8 -47 10 -34 2 -39
0 -39 -20z"/>
<path d="M636 303 c-3 -7 -1 -15 4 -18 6 -4 10 2 11 12 0 14 2 15 7 3 4 -8 22
-16 40 -17 25 -1 32 2 32 16 0 14 -8 18 -45 17 -26 0 -46 -5 -49 -13z m64 -3
c0 -5 -4 -10 -10 -10 -5 0 -10 5 -10 10 0 6 5 10 10 10 6 0 10 -4 10 -10z"/>
<path d="M166 252 c-3 -5 1 -9 9 -9 8 0 15 4 15 9 0 4 -4 8 -9 8 -6 0 -12 -4
-15 -8z"/>
<path d="M234 249 c-7 -12 1938 -11 1956 1 10 7 -291 10 -968 9 -541 -1 -985
-6 -988 -10z"/>
<path d="M2225 250 c27 -12 43 -12 25 0 -8 5 -22 9 -30 9 -10 0 -8 -3 5 -9z"/>
<path d="M415 202 c-3 -3 -5 -15 -6 -26 0 -20 -1 -20 -10 2 -10 26 -24 23 -31
-6 -4 -15 0 -19 23 -20 25 -1 29 3 30 26 1 27 1 27 8 -3 l7 -30 5 31 c3 21 1
31 -8 31 -7 0 -15 -3 -18 -5z"/>
<path d="M466 194 c-25 -24 -19 -41 15 -46 25 -4 33 -1 36 13 3 11 9 16 14 13
5 -3 9 0 9 6 0 7 -7 10 -15 6 -8 -3 -21 1 -29 9 -13 13 -17 13 -30 -1z m35
-21 c13 -17 13 -17 -6 -3 -11 8 -22 16 -24 17 -2 2 0 3 6 3 6 0 17 -8 24 -17z"/>
<path d="M749 183 c0 -16 -3 -22 -6 -15 -2 6 -9 10 -14 7 -5 -4 -6 1 -3 9 3 9
1 16 -5 16 -6 0 -11 -4 -11 -9 0 -5 -2 -15 -5 -23 -7 -17 47 -21 57 -5 5 8 11
6 21 -7 11 -16 16 -16 23 -5 11 18 13 49 3 49 -4 0 -9 -10 -12 -22 -3 -22 -4
-22 -15 5 -6 15 -16 27 -22 27 -5 0 -10 -12 -11 -27z"/>
<path d="M1012 184 c1 -20 6 -30 17 -31 9 -1 21 -2 26 -3 6 -1 27 -2 48 -1 28
1 37 5 38 19 0 14 2 14 9 -3 l9 -20 1 20 1 20 10 -20 c9 -20 9 -20 6 0 -3 23
-36 33 -48 13 -6 -10 -9 -10 -9 0 0 6 -4 12 -10 12 -5 0 -7 -7 -4 -15 4 -8 1
-15 -5 -15 -6 0 -11 10 -11 23 0 16 -3 18 -9 9 -7 -11 -11 -10 -24 2 -11 11
-18 13 -23 5 -4 -8 -9 -7 -15 2 -5 9 -7 2 -7 -17z m38 -10 c0 -8 -5 -12 -10
-9 -6 4 -8 11 -5 16 9 14 15 11 15 -7z"/>
<path d="M1207 181 c7 -32 13 -40 13 -18 0 8 2 22 5 30 4 8 0 14 -9 14 -12 0
-14 -7 -9 -26z"/>
<path d="M1674 197 c5 -14 2 -17 -13 -12 -16 5 -18 2 -14 -15 3 -11 11 -20 18
-20 18 0 27 29 14 48 -9 15 -10 15 -5 -1z"/>
<path d="M1794 196 c-6 -6 -28 -11 -50 -10 -37 1 -54 -9 -54 -31 0 -5 5 -3 10
5 8 13 11 12 25 -5 14 -17 16 -17 11 -2 -6 19 10 24 17 5 3 -7 6 -4 6 6 1 19
16 14 16 -5 0 -5 3 -9 8 -9 4 0 12 0 17 0 6 0 10 8 11 18 0 14 2 14 9 -3 l9
-20 0 20 c1 16 3 17 10 6 5 -8 7 -21 4 -30 -4 -11 -3 -13 4 -6 6 6 13 21 17
35 3 14 3 20 0 13 -4 -10 -10 -10 -27 0 -12 7 -24 15 -27 18 -3 4 -10 2 -16
-5z m10 -21 c-4 -8 -11 -12 -16 -9 -6 4 -5 10 3 15 19 12 19 11 13 -6z"/>
<path d="M1925 200 c-4 -6 -11 -8 -16 -5 -5 4 -9 -4 -9 -17 0 -16 6 -24 18
-25 9 -1 22 -2 27 -3 22 -5 35 1 35 15 0 18 16 20 26 3 5 -7 3 -8 -6 -3 -8 5
-11 3 -9 -4 3 -7 8 -12 12 -12 4 1 21 1 37 1 35 0 41 23 11 40 -25 13 -31 13
-31 -1 0 -5 4 -8 9 -5 5 3 14 -1 21 -9 11 -13 10 -14 -6 -9 -10 4 -24 11 -29
15 -19 14 -75 7 -75 -10 0 -11 -3 -12 -12 -3 -8 8 -8 15 2 27 7 8 10 15 7 15
-3 0 -9 -5 -12 -10z m40 -30 c3 -5 1 -10 -4 -10 -6 0 -11 5 -11 10 0 6 2 10 4
10 3 0 8 -4 11 -10z"/>
<path d="M591 191 c-8 -5 -20 -7 -28 -4 -16 6 -18 -33 -1 -43 8 -5 9 -2 4 11
-7 18 -6 18 13 1 18 -17 21 -17 27 -3 10 26 1 48 -15 38z"/>
<path d="M843 183 c-3 -10 -8 -21 -9 -24 -2 -4 6 -7 19 -8 12 0 33 -2 47 -4
14 -2 30 1 37 5 6 5 14 5 17 -1 12 -18 36 1 36 28 -1 25 -1 26 -13 5 -10 -18
-14 -19 -24 -9 -6 7 -9 16 -5 20 4 4 0 6 -8 3 -8 -3 -14 -14 -12 -24 2 -16 1
-17 -8 -4 -9 13 -11 13 -21 0 -9 -13 -10 -12 -5 2 3 10 1 20 -4 23 -6 4 -10
-4 -11 -17 l0 -23 -9 23 c-11 27 -19 28 -27 5z"/>
<path d="M1290 191 c0 -5 -12 -8 -26 -6 -29 3 -44 -20 -24 -38 10 -10 11 -7 6
13 l-7 25 17 -22 c17 -23 44 -21 44 4 0 8 5 11 10 8 6 -4 8 -11 5 -16 -4 -5 1
-9 9 -9 8 0 17 8 19 18 4 16 5 16 6 0 0 -10 4 -18 9 -19 54 -5 76 -2 87 14 11
16 14 16 25 2 11 -13 10 -14 -4 -9 -11 4 -16 1 -16 -10 0 -9 3 -16 8 -16 7 1
62 46 62 53 0 3 -101 1 -110 -3 -3 -1 -9 -2 -14 -1 -5 1 -13 -4 -19 -11 -7
-10 -8 -9 -4 2 4 12 -2 16 -22 15 -14 -1 -34 3 -43 7 -11 5 -18 5 -18 -1z m-5
-21 c3 -5 1 -10 -4 -10 -6 0 -11 5 -11 10 0 6 2 10 4 10 3 0 8 -4 11 -10z"/>
<path d="M1395 190 c3 -5 8 -10 11 -10 2 0 4 5 4 10 0 6 -5 10 -11 10 -5 0 -7
-4 -4 -10z"/>
<path d="M1560 190 c0 -5 -7 -6 -17 -3 -11 4 -14 3 -9 -6 5 -8 1 -14 -13 -18
-34 -9 -24 -19 14 -15 29 3 35 8 35 28 0 13 -2 24 -5 24 -3 0 -5 -4 -5 -10z"/>
<path d="M1593 176 c2 -32 14 -41 36 -27 12 8 12 14 4 33 l-12 23 0 -22 c-1
-13 -5 -23 -10 -23 -5 0 -12 10 -14 23 -4 15 -5 13 -4 -7z"/>
<path d="M632 166 c2 -13 10 -21 23 -21 13 0 21 8 23 21 2 17 -2 22 -23 22
-21 0 -25 -5 -23 -22z"/>
<path d="M204 94 c3 -8 2 -12 -4 -9 -6 3 -10 0 -10 -7 0 -7 13 -14 30 -15 22
-2 29 1 24 10 -5 9 -3 9 7 0 19 -19 45 -16 46 6 1 14 -5 18 -25 17 -15 -1 -33
-5 -39 -9 -9 -5 -13 -3 -13 7 0 9 -5 16 -11 16 -6 0 -8 -7 -5 -16z"/>
<path d="M345 99 c-4 -6 -13 -8 -21 -5 -9 3 -14 -2 -14 -14 0 -11 5 -20 11
-20 5 0 8 4 5 8 -3 5 1 9 9 9 8 0 12 -4 9 -9 -3 -4 6 -7 18 -6 15 1 25 9 25
19 1 13 -3 16 -14 12 -11 -4 -14 -2 -9 5 4 7 3 12 -3 12 -5 0 -13 -5 -16 -11z"/>
<path d="M435 99 c-4 -6 -13 -8 -21 -5 -9 3 -14 -2 -14 -14 0 -11 5 -20 11
-20 5 0 8 4 5 8 -3 5 1 9 9 9 8 0 12 -4 9 -9 -3 -4 0 -8 5 -8 6 0 11 11 11 25
0 27 -5 31 -15 14z"/>
<path d="M470 85 c0 -14 5 -25 11 -25 5 0 8 4 5 8 -3 5 1 9 10 9 10 0 12 -7 8
-21 -4 -14 -3 -18 4 -11 5 6 12 21 16 35 3 14 3 19 0 12 -5 -10 -11 -10 -30 3
-23 15 -24 15 -24 -10z"/>
<path d="M541 83 c0 -16 3 -22 6 -15 2 6 10 9 16 5 18 -11 127 -13 127 -2 0 6
-4 7 -10 4 -5 -3 -10 1 -10 10 0 9 5 13 10 10 6 -3 10 -1 10 4 0 22 -30 10
-31 -11 l0 -23 -9 23 c-5 12 -12 22 -16 22 -3 0 -4 -6 -1 -14 3 -8 -1 -17 -9
-20 -9 -4 -14 1 -14 14 0 11 -5 20 -11 20 -6 0 -9 -7 -6 -15 4 -8 2 -17 -3
-20 -6 -4 -10 4 -10 17 0 18 -2 20 -10 8 -6 -10 -10 -11 -10 -2 0 6 -4 12 -10
12 -5 0 -10 -12 -9 -27z"/>
<path d="M766 95 c-13 -10 -25 -11 -42 -5 -26 10 -30 4 -14 -20 9 -13 10 -13
10 0 0 10 3 11 8 4 4 -7 19 -12 34 -12 20 0 25 5 21 17 -3 12 -1 11 11 -3 16
-20 21 -11 10 18 -7 19 -13 20 -38 1z"/>
<path d="M834 97 c3 -10 6 -22 6 -26 0 -4 8 -7 19 -8 14 -1 17 3 14 18 -3 11
-10 22 -16 26 -7 4 -8 -1 -4 -13 7 -18 6 -18 -9 1 -15 18 -16 18 -10 2z"/>
<path d="M954 95 c-3 -8 -3 -19 1 -25 10 -16 45 -12 45 5 0 8 4 15 10 15 5 0
7 -7 4 -15 -7 -18 7 -20 24 -3 9 9 15 9 24 0 15 -15 32 -16 23 -2 -3 6 -1 10
5 10 6 0 9 4 5 10 -3 5 -13 6 -22 3 -12 -5 -14 -3 -8 7 6 10 4 11 -6 4 -17
-11 -69 -12 -69 -1 0 13 -31 7 -36 -8z m31 -4 c3 -5 1 -12 -5 -16 -5 -3 -10 1
-10 9 0 18 6 21 15 7z"/>
<path d="M1119 108 c-10 -34 -7 -49 8 -46 22 4 29 28 8 28 -9 0 -13 5 -10 10
3 6 4 10 1 10 -3 0 -6 -1 -7 -2z"/>
<path d="M1166 92 c-4 -13 -5 -26 -2 -29 10 -11 18 4 14 29 l-4 23 -8 -23z"/>
<path d="M1190 98 c0 -5 10 -6 23 -3 15 4 18 3 8 -3 -11 -8 -11 -11 0 -16 8
-3 4 -3 -8 0 -13 3 -23 1 -23 -4 0 -4 19 -8 43 -8 39 1 43 3 39 24 -2 12 -9
22 -14 22 -6 0 -8 -7 -4 -15 3 -9 0 -15 -9 -15 -8 0 -14 5 -12 12 1 7 -8 13
-20 14 -13 1 -23 -3 -23 -8z"/>
<path d="M1290 80 c0 -28 2 -31 23 -24 12 4 28 7 34 7 8 0 9 4 4 11 -5 6 -10
16 -10 21 0 6 -12 11 -26 13 -22 3 -25 0 -25 -28z m17 -12 c-3 -7 -5 -2 -5 12
0 14 2 19 5 13 2 -7 2 -19 0 -25z"/>
<path d="M1368 85 c6 -31 8 -31 14 0 3 16 1 25 -7 25 -8 0 -10 -9 -7 -25z"/>
<path d="M1437 104 c-3 -3 -13 -7 -24 -8 -19 -3 -32 -36 -13 -36 6 0 8 5 5 11
-4 6 3 5 14 -3 18 -11 23 -11 30 1 7 11 9 11 14 0 4 -10 6 -10 6 2 1 18 -22
42 -32 33z m3 -24 c0 -5 -5 -10 -11 -10 -5 0 -7 5 -4 10 3 6 8 10 11 10 2 0 4
-4 4 -10z"/>
<path d="M1523 93 c-3 -7 -2 -17 2 -21 10 -10 86 -11 79 -1 -3 5 1 9 8 9 10 0
10 2 -1 9 -11 7 -11 9 0 14 10 4 10 6 -2 6 -9 1 -19 -8 -22 -19 -3 -11 -11
-20 -19 -20 -8 0 -9 3 -3 8 6 4 11 12 12 18 3 17 -48 14 -54 -3z m29 -8 c0 -5
-5 -11 -11 -13 -6 -2 -11 4 -11 13 0 9 5 15 11 13 6 -2 11 -8 11 -13z"/>
<path d="M1650 85 c0 -21 5 -24 38 -23 20 1 45 -2 55 -7 10 -4 17 -3 17 4 0 6
-6 11 -14 11 -9 0 -13 7 -11 18 3 16 -4 19 -41 19 -40 1 -44 -1 -44 -22z m30
0 c0 -8 -4 -15 -8 -15 -5 0 -9 7 -9 15 0 8 4 15 9 15 4 0 8 -7 8 -15z m32 0
c0 -5 -5 -11 -11 -13 -6 -2 -11 4 -11 13 0 9 5 15 11 13 6 -2 11 -8 11 -13z"/>
<path d="M1780 85 c0 -14 4 -25 8 -25 4 0 8 11 8 25 0 14 -4 25 -8 25 -4 0 -8
-11 -8 -25z"/>
<path d="M1810 85 c0 -14 4 -25 8 -25 4 0 8 11 8 25 0 14 -4 25 -8 25 -4 0 -8
-11 -8 -25z"/>
<path d="M1840 85 c0 -14 2 -25 4 -25 2 0 11 -3 20 -6 9 -3 16 -1 16 5 0 6 -5
10 -12 9 -15 -4 -18 24 -3 34 6 5 3 8 -7 8 -13 0 -18 -8 -18 -25z"/>
<path d="M1900 86 c0 -21 6 -24 41 -28 22 -2 43 0 45 4 5 8 -23 12 -57 10 -9
-1 -16 5 -16 14 0 8 7 12 16 9 9 -2 22 -1 29 4 8 5 0 8 -23 9 -31 1 -35 -2
-35 -22z"/>
<path d="M2000 87 c0 -15 6 -24 15 -24 10 0 14 6 10 14 -3 8 -5 19 -5 24 0 5
-4 9 -10 9 -5 0 -10 -10 -10 -23z"/>
<path d="M2034 98 c-3 -4 -1 -8 5 -8 5 0 16 -2 24 -5 8 -4 14 0 14 9 0 15 -35
18 -43 4z"/>
<path d="M2100 85 c0 -16 6 -25 15 -25 8 0 15 7 15 15 0 8 -5 15 -11 15 -5 0
-7 5 -4 10 3 6 1 10 -4 10 -6 0 -11 -11 -11 -25z"/>
<path d="M2153 94 c-7 -20 4 -31 31 -31 18 -1 23 4 21 18 -2 11 0 19 5 19 5 0
11 -12 13 -27 4 -26 4 -26 6 4 1 31 -1 32 -35 31 -20 -1 -38 -7 -41 -14z m29
-9 c0 -5 -5 -11 -11 -13 -6 -2 -11 4 -11 13 0 9 5 15 11 13 6 -2 11 -8 11 -13z"/>
<path d="M895 89 c-4 -6 -3 -15 3 -21 6 -6 11 -4 15 6 7 18 -9 31 -18 15z"/>
<path d="M1490 80 c0 -5 5 -10 11 -10 5 0 7 5 4 10 -3 6 -8 10 -11 10 -2 0 -4
-4 -4 -10z"/>
<path d="M2040 70 c0 -5 10 -10 23 -10 18 0 19 2 7 10 -19 13 -30 13 -30 0z"/>
<path d="M1620 59 c0 -5 5 -7 10 -4 6 3 10 8 10 11 0 2 -4 4 -10 4 -5 0 -10
-5 -10 -11z"/>
<path d="M1536 12 c-2 -4 4 -8 14 -8 10 0 16 4 14 8 -7 10 -21 10 -28 0z"/>
</g>
</svg>
